<svg width="30" height="30" viewBox="0 0 30 30" fill="none" xmlns="http://www.w3.org/2000/svg">
<path d="M15.6565 10.2622C12.6847 10.2622 10.2876 12.6599 10.2876 15.6324C10.2876 18.6048 12.6847 21.0024 15.6565 21.0024C18.6283 21.0024 21.0254 18.6048 21.0254 15.6324C21.0254 12.6599 18.6283 10.2622 15.6565 10.2622ZM15.6565 19.1236C13.736 19.1236 12.166 17.558 12.166 15.6324C12.166 13.7068 13.7313 12.1411 15.6565 12.1411C17.5817 12.1411 19.147 13.7068 19.147 15.6324C19.147 17.558 17.5769 19.1236 15.6565 19.1236ZM22.4973 10.0426C22.4973 10.739 21.9366 11.2951 21.245 11.2951C20.5488 11.2951 19.9928 10.7343 19.9928 10.0426C19.9928 9.35085 20.5535 8.79 21.245 8.79C21.9366 8.79 22.4973 9.35085 22.4973 10.0426ZM26.0532 11.3138C25.9738 9.63595 25.5906 8.1497 24.3618 6.92518C23.1375 5.70065 21.6516 5.31741 19.974 5.23328C18.2452 5.13513 13.0631 5.13513 11.3342 5.23328C9.66141 5.31273 8.1755 5.69598 6.94657 6.9205C5.71765 8.14502 5.33916 9.63128 5.25505 11.3092C5.15693 13.0384 5.15693 18.2216 5.25505 19.9509C5.33449 21.6288 5.71765 23.115 6.94657 24.3396C8.1755 25.564 9.65673 25.9473 11.3342 26.0314C13.0631 26.1296 18.2452 26.1296 19.974 26.0314C21.6516 25.9519 23.1375 25.5687 24.3618 24.3396C25.5859 23.115 25.9691 21.6288 26.0532 19.9509C26.1514 18.2216 26.1514 13.0431 26.0532 11.3138ZM23.8197 21.8063C23.4553 22.7225 22.7496 23.4281 21.8292 23.7974C20.4506 24.3442 17.1798 24.218 15.6565 24.218C14.1332 24.218 10.8576 24.3396 9.48385 23.7974C8.568 23.4328 7.86243 22.7271 7.49327 21.8063C6.94657 20.4276 7.07273 17.156 7.07273 15.6324C7.07273 14.1087 6.95125 10.8324 7.49327 9.45834C7.85774 8.5423 8.56332 7.83655 9.48385 7.46733C10.8623 6.9205 14.1332 7.04669 15.6565 7.04669C17.1798 7.04669 20.4554 6.92518 21.8292 7.46733C22.745 7.83188 23.4506 8.53761 23.8197 9.45834C24.3664 10.8371 24.2402 14.1087 24.2402 15.6324C24.2402 17.156 24.3664 20.4323 23.8197 21.8063Z" fill="white"/>
</svg>
