<svg width="143" height="40" viewBox="0 0 143 40" fill="none" xmlns="http://www.w3.org/2000/svg">
<g clip-path="url(#clip0_111_188)">
<path d="M143 0H0V39.8442H143V0Z" fill="white"/>
<path d="M65.8169 23.4325L65.8315 18.8168L63.8377 22.2885H62.1516L60.3053 18.8883L60.3199 23.4325H58.0491V15.795H60.8935L63.0608 19.8416L65.2449 15.7954H68.0887V23.4325H65.8169Z" fill="#1B170C"/>
<path d="M112.497 15.8253H114.742V23.431H112.497V15.8253ZM112.454 12.9221H114.785V14.9162H112.454V12.9221Z" fill="#1B170C"/>
<mask id="mask0_111_188" style="mask-type:luminance" maskUnits="userSpaceOnUse" x="0" y="0" width="143" height="40">
<path d="M143 0H0V39.8442H143V0Z" fill="white"/>
</mask>
<g mask="url(#mask0_111_188)">
<path d="M120.026 20.1347C119.308 20.1347 117.52 20.2071 117.52 21.2348C117.522 21.3367 117.545 21.4369 117.588 21.5295C117.63 21.6221 117.691 21.7052 117.766 21.7737C117.842 21.8422 117.93 21.8947 118.026 21.928C118.123 21.9614 118.225 21.9748 118.326 21.9676C118.964 21.9427 119.57 21.6815 120.026 21.2348V20.1347ZM122.354 23.4475H120.14L120.096 22.7141C119.451 23.1987 118.734 23.6089 117.913 23.6089C116.535 23.6089 115.348 22.6852 115.348 21.2348C115.348 20.1646 116.11 19.4311 117.048 19.0654C118.002 18.684 119.055 18.6688 120.054 18.684C120.038 17.8775 119.818 17.3942 118.924 17.3942C118.147 17.3942 117.605 17.7602 117.049 18.2598L115.583 16.9687C116.037 16.5293 116.575 16.185 117.164 15.9558C117.753 15.7266 118.382 15.6172 119.014 15.634C120.977 15.634 122.355 16.6325 122.355 18.699L122.354 23.4475Z" fill="#1B170C"/>
<path d="M127.626 17.7163C127.494 17.7163 127.362 17.6722 127.23 17.6722C126.978 17.6736 126.729 17.7277 126.499 17.8312C126.269 17.9347 126.063 18.0853 125.895 18.2731C125.754 18.4482 125.645 18.6469 125.573 18.86V23.4309H123.331V15.8103H125.515L125.558 16.8809C125.724 16.5149 125.992 16.2049 126.331 15.9887C126.669 15.7726 127.063 15.6597 127.465 15.6638C127.836 15.6609 128.206 15.7102 128.564 15.8103C128.477 16.001 127.627 17.717 127.627 17.717" fill="#1B170C"/>
<path d="M133.089 17.9353C132.684 17.5251 132.14 17.2796 131.564 17.2464C131.352 17.2584 131.145 17.319 130.959 17.4237C130.774 17.5284 130.615 17.6743 130.495 17.8501C130.172 18.3182 130.099 19.0663 130.099 19.623C130.099 20.6053 130.435 21.9682 131.653 21.9682C132.196 21.9313 132.707 21.6967 133.089 21.3088L133.089 17.9353ZM133.134 23.4313L133.074 22.7728C132.518 23.2696 131.796 23.5409 131.051 23.5339C128.822 23.5339 127.783 21.6438 127.783 19.6354C127.729 18.5825 128.08 17.5491 128.765 16.7471C129.048 16.403 129.404 16.1249 129.806 15.9324C130.208 15.7399 130.648 15.6376 131.094 15.6327C131.836 15.6451 132.547 15.9328 133.089 16.4398V12.5267H135.361V23.431L133.134 23.4313Z" fill="#1B170C"/>
<path d="M72.7149 17.3503C71.425 17.3503 71.0138 18.5067 71.0138 19.6065C71.0138 20.7064 71.425 21.8484 72.7149 21.8484C74.0047 21.8484 74.4153 20.7044 74.4153 19.6065C74.4153 18.5086 74.005 17.3503 72.7149 17.3503ZM72.7149 23.5648C70.3261 23.5648 68.7134 21.9965 68.7134 19.6075C68.7134 17.2184 70.3261 15.6353 72.7149 15.6353C75.1036 15.6353 76.7189 17.2191 76.7189 19.6075C76.7189 21.9959 75.1055 23.5648 72.7149 23.5648Z" fill="#1B170C"/>
<path d="M82.1497 23.4309V18.419C82.1497 17.8914 82.1344 17.54 81.475 17.54C80.7718 17.54 80.039 18.1253 79.5398 18.5654V23.4309H77.2693V15.8252H79.4676L79.4966 16.9089C80.4051 16.1462 81.3285 15.6638 82.5304 15.6638C83.5997 15.6638 84.4218 16.2638 84.4218 17.3938V23.4316L82.1497 23.4309Z" fill="#1B170C"/>
<path d="M88.9692 23.6083C87.1356 23.6083 86.5223 22.5381 86.5223 20.8532C86.5223 19.7833 86.5363 18.727 86.5363 17.6576L84.9687 17.6723V15.8253L86.5668 15.8406L86.624 14.1974L88.7359 13.6117V15.8406L91.1097 15.8253V17.6719L88.7792 17.6573V20.7217C88.7954 21.0582 88.6778 21.776 89.19 21.776C89.5857 21.776 90.0995 21.41 90.4361 21.204L91.4332 22.6976C90.7266 23.2489 89.8661 23.5668 88.9708 23.6074" fill="#1B170C"/>
<path d="M95.5494 17.3503C95.0297 17.3642 94.5315 17.5612 94.143 17.9067V21.2345C94.5556 21.6408 95.1035 21.8808 95.682 21.9085C96.8984 21.9085 97.0888 20.251 97.0888 19.3431C97.0888 18.2877 96.7659 17.3503 95.5494 17.3503ZM97.983 22.9336C97.4683 23.3375 96.8342 23.5594 96.1799 23.5644C95.8049 23.5731 95.432 23.5075 95.0824 23.3716C94.7328 23.2356 94.4136 23.0319 94.143 22.7722L94.0692 23.4465H91.8708V12.5267H94.143V16.4252C94.7089 15.9242 95.439 15.6483 96.1949 15.6495C96.9108 15.6536 97.6018 15.9134 98.1431 16.382C98.9799 17.0859 99.4044 18.1549 99.4044 19.4746C99.4044 21.0581 98.9363 22.2018 97.9827 22.934" fill="#1B170C"/>
<path d="M103.459 15.2523L102.375 14.1401L105.085 12.3224L106.493 13.7591L103.459 15.2523ZM103.751 17.3198C103.572 17.3143 103.393 17.3447 103.225 17.4092C103.058 17.4736 102.905 17.5708 102.775 17.6951C102.645 17.8193 102.542 17.9682 102.47 18.1329C102.399 18.2976 102.361 18.4749 102.359 18.6544H105.13C105.132 18.4749 105.097 18.2968 105.028 18.1311C104.959 17.9654 104.856 17.8156 104.727 17.6907C104.598 17.5658 104.445 17.4686 104.277 17.4048C104.109 17.341 103.93 17.3121 103.751 17.3198ZM103.942 23.5501C101.465 23.5501 99.9694 22.0403 99.9694 19.5633C99.9694 17.3356 101.45 15.6495 103.737 15.6495C105.98 15.6495 107.314 17.1431 107.314 19.3431C107.321 19.6027 107.306 19.8626 107.269 20.1197H102.3C102.31 20.5561 102.485 20.9725 102.79 21.2853C103.094 21.598 103.506 21.7839 103.942 21.8055C104.689 21.8055 105.335 21.3362 105.849 20.8372L107.358 22.1719C106.91 22.618 106.377 22.9697 105.79 23.2064C105.203 23.443 104.575 23.5598 103.943 23.5498" fill="#1B170C"/>
<path d="M110.561 23.5502C109.564 23.5502 108.73 23.1984 108.347 22.4939C108.128 22.0976 108.07 21.688 108.07 20.9552V12.5271H110.297V20.8827C110.297 21.205 110.223 21.688 110.707 21.688C110.95 21.6744 111.191 21.6351 111.426 21.5707L112.086 23.255C111.595 23.4299 111.081 23.529 110.561 23.5489" fill="#1B170C"/>
<path d="M60.2272 8.35436L59.0215 8.3445V9.88414H60.2272C60.7003 9.88414 61.0534 9.64263 61.0534 9.14213C61.0629 9.03291 61.0478 8.92295 61.009 8.82039C60.9703 8.71784 60.909 8.6253 60.8296 8.54965C60.7503 8.474 60.6549 8.41717 60.5507 8.38336C60.4464 8.34956 60.3358 8.33964 60.2272 8.35436ZM60.32 10.6354H59.0215V12.4813H58.0491V7.63967H60.2472C60.4266 7.63663 60.6061 7.64278 60.7849 7.6581C61.1457 7.68977 61.4794 7.86233 61.7138 8.13839C61.9483 8.41445 62.0645 8.77177 62.0372 9.13291C62.0372 10.2178 61.3137 10.6265 60.3212 10.6354" fill="#1B170C"/>
<path d="M65.3358 10.2826H65.0669C64.4457 10.2826 63.2769 10.3198 63.2769 11.1825C63.2754 11.2791 63.2939 11.3749 63.331 11.4641C63.3682 11.5532 63.4232 11.6338 63.4928 11.7007C63.5624 11.7677 63.645 11.8196 63.7355 11.8533C63.826 11.887 63.9225 11.9017 64.0189 11.8966C64.524 11.8405 64.9918 11.6034 65.3358 11.2293V10.2826ZM66.3002 12.4807H65.3545L65.3262 12.0262C64.8931 12.3668 64.3649 12.5643 63.8146 12.5916C63.6239 12.5993 63.4336 12.5687 63.255 12.5016C63.0763 12.4345 62.9129 12.3322 62.7745 12.2008C62.6361 12.0695 62.5255 11.9116 62.4492 11.7367C62.3729 11.5618 62.3324 11.3734 62.3302 11.1825C62.3363 10.891 62.4285 10.6077 62.5952 10.3684C62.7619 10.1291 62.9956 9.94444 63.267 9.83771C63.8978 9.55934 64.6398 9.59652 65.3167 9.59652C65.3167 8.88247 65.2147 8.30698 64.3615 8.30698C64.1377 8.31506 63.9178 8.36855 63.7153 8.4642C63.5128 8.55985 63.3319 8.69567 63.1835 8.86341L62.5797 8.27901C62.8216 8.04072 63.1086 7.85315 63.424 7.72731C63.7393 7.60148 64.0766 7.53991 64.4161 7.54622C65.0835 7.54622 65.8258 7.81569 66.1226 8.45538C66.2494 8.76395 66.3094 9.09591 66.2986 9.42937L66.3002 12.4807Z" fill="#1B170C"/>
<path d="M69.1443 13.093C69.0727 13.3505 68.9733 13.5994 68.8478 13.8354C68.5602 14.3076 68.0782 14.4286 67.5589 14.4286C67.3303 14.4258 67.103 14.3945 66.8821 14.3355V13.5563C67.061 13.6008 67.2449 13.6221 67.4293 13.6199C67.967 13.6199 68.1618 13.3415 68.3102 12.8687L68.4957 12.2649C68.3977 12.1023 68.314 11.9316 68.2453 11.7545L66.7232 7.6676H67.7432L68.9117 11.0341C68.9301 11.1942 68.9393 11.3551 68.9394 11.5162C68.9363 11.3553 68.9425 11.1943 68.9578 11.0341L70.0243 7.6676H70.9982L69.1443 13.093Z" fill="#1B170C"/>
<path d="M73.0622 12.6104C72.3862 12.6326 71.7289 12.3857 71.2347 11.924L71.8184 11.3119C71.9721 11.4768 72.157 11.6093 72.3625 11.7016C72.5681 11.794 72.7899 11.8444 73.0152 11.8499C73.386 11.8499 73.8967 11.72 73.8967 11.2563C73.8967 10.3478 71.3735 10.5976 71.3735 8.99342C71.3735 8.04771 72.2363 7.53768 73.0988 7.53768C73.6745 7.52303 74.2378 7.70631 74.6946 8.05693L74.1748 8.71505C73.8734 8.45158 73.49 8.30095 73.0899 8.28891C72.7463 8.28891 72.3104 8.46496 72.3104 8.86408C72.3135 8.94041 72.3324 9.01525 72.366 9.08385C72.3996 9.15245 72.4471 9.21332 72.5055 9.26258C72.6903 9.40015 72.9018 9.49757 73.1264 9.54858C73.9145 9.80852 74.8233 10.1705 74.8233 11.1534C74.8233 12.1362 73.9428 12.6091 73.0619 12.6091" fill="#1B170C"/>
<path d="M80.4073 8.95625C80.2571 8.78317 80.0741 8.6416 79.8689 8.53971C79.6636 8.43782 79.4402 8.37763 79.2115 8.36264C79.0354 8.36975 78.8638 8.42004 78.7118 8.50909C78.5597 8.59815 78.4319 8.72322 78.3395 8.87331C78.1288 9.25884 78.0297 9.69551 78.0535 10.1342C78.0535 10.9319 78.3395 11.8035 79.2681 11.8035C79.7088 11.7685 80.1182 11.562 80.4083 11.2284L80.4073 8.95625ZM80.4356 12.4804L80.3984 12.0632C80.0466 12.3776 79.5902 12.5495 79.1184 12.5452C77.7084 12.5452 77.0506 11.3583 77.0506 10.078C77.0167 9.41206 77.2391 8.75841 77.6722 8.25142C77.852 8.03378 78.077 7.85794 78.3316 7.73616C78.5863 7.61438 78.8644 7.54958 79.1467 7.54627C79.6157 7.55448 80.0651 7.73645 80.4076 8.05694V5.58081H81.3813V12.4807L80.4356 12.4804Z" fill="#1B170C"/>
<path d="M85.5636 9.38325C85.5666 9.24171 85.5416 9.10097 85.4899 8.96917C85.4382 8.83736 85.3609 8.7171 85.2625 8.61534C85.1641 8.51358 85.0465 8.43233 84.9165 8.37628C84.7864 8.32024 84.6466 8.29051 84.5051 8.28883C83.7916 8.28883 83.4303 8.84557 83.3372 9.49447H85.5636V9.38325ZM86.4813 10.2644H83.2896C83.2899 10.5768 83.3628 10.8847 83.5025 11.1641C83.6115 11.3546 83.7679 11.5137 83.9567 11.6258C84.1454 11.7379 84.3599 11.7992 84.5794 11.8038C84.809 11.794 85.0344 11.739 85.2427 11.642C85.451 11.545 85.6381 11.4078 85.7933 11.2384L86.4057 11.8317C86.1682 12.0725 85.8832 12.2612 85.5687 12.3857C85.2543 12.5103 84.9174 12.5679 84.5794 12.555C83.0299 12.555 82.2968 11.4977 82.2968 10.0328C82.2968 8.73403 83.0388 7.55603 84.4488 7.55603C85.8305 7.55603 86.508 8.58531 86.508 9.87581C86.5081 10.0061 86.4986 10.1362 86.4797 10.2651" fill="#1B170C"/>
<path d="M37.5887 7.63806H23.514L30.5273 20.7172L37.5887 7.63806Z" fill="#AF0623"/>
<path d="M14.3204 7.63806H7.63876V32.2131H14.3204V7.63806Z" fill="#AF0623"/>
<path d="M33.0381 28.6311H27.5895L21.6419 17.636V32.2128H39.4601V17.4005L33.0381 28.6311Z" fill="#AF0623"/>
<path d="M53.4633 7.63806H46.7817V32.2131H53.4633V7.63806Z" fill="#AF0623"/>
<path d="M60.3053 27.0817L59.1569 30.1006H61.5307L60.3053 27.0817ZM62.3073 32.2131L61.7493 30.7361H58.8718L58.3252 32.2128H57.5044L59.8347 26.5138H60.8198L63.1278 32.2128L62.3073 32.2131Z" fill="#AF0623"/>
<path d="M68.8901 30.5171C68.9216 30.8656 68.8612 31.2162 68.715 31.534C68.3868 32.1257 67.4893 32.3231 66.877 32.3231C65.0174 32.3231 64.1203 31.1406 64.1203 29.3582C64.1203 27.695 65.1267 26.3822 66.877 26.3822C67.249 26.3808 67.6173 26.4569 67.9583 26.6057C68.2993 26.7545 68.6055 26.9728 68.8574 27.2466L68.3543 27.7604C68.1656 27.5286 67.9291 27.3402 67.6611 27.2079C67.393 27.0756 67.0995 27.0027 66.8007 26.9939C65.4978 26.9939 64.9084 28.2317 64.9084 29.3684C64.9084 30.5941 65.4772 31.6882 66.8338 31.6882C67.5119 31.6882 68.1684 31.5344 68.1684 30.7148C68.1684 30.4186 68.1684 30.1133 68.1576 29.8069H66.7467V29.1714H68.8907L68.8901 30.5171Z" fill="#AF0623"/>
<path d="M75.191 30.5171C75.2225 30.8655 75.1624 31.2161 75.0165 31.534C74.6879 32.1257 73.7909 32.3231 73.1782 32.3231C71.3186 32.3231 70.4211 31.1406 70.4211 29.3582C70.4211 27.695 71.4279 26.3822 73.1782 26.3822C73.5502 26.3808 73.9184 26.457 74.2593 26.6058C74.6002 26.7546 74.9064 26.9728 75.1583 27.2466L74.6546 27.7604C74.4658 27.5287 74.2294 27.3403 73.9614 27.208C73.6934 27.0758 73.4 27.0028 73.1013 26.9939C71.7984 26.9939 71.2089 28.2317 71.2089 29.3684C71.2089 30.594 71.7777 31.6882 73.1343 31.6882C73.8122 31.6882 74.469 31.5344 74.469 30.7148C74.469 30.4186 74.469 30.1133 74.4572 29.8069H73.0463V29.1714H75.1907L75.191 30.5171Z" fill="#AF0623"/>
<path d="M77.0392 32.2128V26.5138H77.7612L77.7507 31.5665L80.5726 31.556V32.2119L77.0392 32.2128Z" fill="#AF0623"/>
<path d="M84.2362 27.0381C82.8793 27.0381 82.3426 28.1439 82.3426 29.3578C82.3426 30.5718 82.8793 31.6776 84.2362 31.6776C85.6027 31.6776 86.14 30.5727 86.14 29.3578C86.14 28.143 85.603 27.0381 84.2362 27.0381ZM84.2362 32.3001C82.4856 32.3001 81.5558 31.0754 81.5558 29.4014C81.5558 27.7928 82.5291 26.4244 84.2362 26.4244C85.9522 26.4244 86.9269 27.7928 86.9269 29.4014C86.9269 31.0754 85.997 32.3001 84.2362 32.3001Z" fill="#AF0623"/>
<path d="M94.1134 32.2131L94.136 27.1694L92.2646 31.2391H91.3243L89.4862 27.1048L89.5078 32.2131H88.7744V26.5249H90.0115L91.7844 30.6706L93.5996 26.5249H94.8465V32.2131H94.1134Z" fill="#AF0623"/>
<path d="M98.4453 25.7146L98.0958 25.3431L99.5293 24.3802L100.032 24.9052L98.4453 25.7146ZM97.0128 32.2132V26.5354H100.853V27.1913L97.7453 27.1802V28.9524L100.284 28.9416V29.588L97.7453 29.5772V31.5681L100.885 31.5576V32.2135L97.0128 32.2132Z" fill="#AF0623"/>
<path d="M105.163 27.1147H103.402V29.0404H105.086C105.699 29.0404 106.224 28.7341 106.224 28.0553C106.224 27.3994 105.787 27.114 105.163 27.114M106.398 32.2125L105.119 29.6747H103.403V32.2125H102.669V26.4925H104.955C105.142 26.4888 105.328 26.4963 105.514 26.5147C106.357 26.6015 107.002 27.1156 107.002 28.013C107.015 28.3609 106.912 28.7032 106.707 28.985C106.503 29.2668 106.209 29.4715 105.874 29.5663L107.231 32.2137L106.398 32.2125Z" fill="#AF0623"/>
<path d="M111.026 27.0817L109.877 30.1006H112.251L111.026 27.0817ZM113.028 32.2131L112.47 30.7361H109.593L109.046 32.2128H108.226L110.556 26.5138H111.541L113.849 32.2128L113.028 32.2131Z" fill="#AF0623"/>
<path d="M116.375 27.1804V32.2131H115.642V27.1804L113.716 27.1922V26.535H118.3V27.1912L116.375 27.1804Z" fill="#AF0623"/>
<path d="M119.249 32.2131V31.5897L120.332 31.6005V27.1595H119.315V26.5354H122.049V27.1595H121.032V31.6005L122.126 31.5897V32.2128L119.249 32.2131Z" fill="#AF0623"/>
<path d="M126.041 27.0381C124.685 27.0381 124.149 28.1439 124.149 29.3578C124.149 30.5718 124.686 31.6776 126.041 31.6776C127.408 31.6776 127.945 30.5727 127.945 29.3578C127.945 28.143 127.41 27.0381 126.041 27.0381ZM126.041 32.3001C124.291 32.3001 123.361 31.0754 123.361 29.4014C123.361 27.7928 124.335 26.4244 126.041 26.4244C127.757 26.4244 128.733 27.7928 128.733 29.4014C128.733 31.0754 127.803 32.3001 126.041 32.3001Z" fill="#AF0623"/>
<path d="M134.212 32.2131L131.279 27.1788L131.301 32.2118H130.568V26.5236H131.717L134.649 31.5664L134.626 26.5236H135.36V32.2118L134.212 32.2131Z" fill="#AF0623"/>
</g>
</g>
<defs>
<clipPath id="clip0_111_188">
<rect width="143" height="39.8442" fill="white"/>
</clipPath>
</defs>
</svg>
