<svg width="30" height="30" viewBox="0 0 30 30" fill="none" xmlns="http://www.w3.org/2000/svg">
<path d="M23.5774 10.3081C23.5907 10.5111 23.5907 10.7141 23.5907 10.917C23.5907 17.1079 19.2714 24.2411 11.3769 24.2411C8.94482 24.2411 6.68548 23.4727 4.78497 22.1389C5.13053 22.1823 5.46276 22.1969 5.82161 22.1969C7.82841 22.1969 9.67578 21.4575 11.151 20.1961C9.26379 20.1526 7.68224 18.8042 7.13733 16.9484C7.40316 16.9918 7.66894 17.0208 7.94806 17.0208C8.33347 17.0208 8.71892 16.9628 9.07773 16.8615C7.11078 16.4264 5.63552 14.5417 5.63552 12.2654V12.2074C6.20698 12.5554 6.87154 12.7729 7.57587 12.8018C6.41962 11.9609 5.66211 10.5256 5.66211 8.90173C5.66211 8.03184 5.87471 7.23443 6.24686 6.53849C8.36003 9.38019 11.5364 11.236 15.0982 11.439C15.0317 11.091 14.9918 10.7286 14.9918 10.3661C14.9918 7.78536 16.9057 5.68311 19.2846 5.68311C20.5206 5.68311 21.637 6.24854 22.4211 7.16194C23.3913 6.95898 24.3216 6.5675 25.1456 6.03107C24.8266 7.11848 24.1488 8.03188 23.2584 8.61178C24.1223 8.51035 24.9596 8.24931 25.7304 7.88689C25.1457 8.81476 24.4147 9.64113 23.5774 10.3081Z" fill="white"/>
</svg>
